<svg width="512" height="512" viewBox="0 0 512 512" fill="none" xmlns="http://www.w3.org/2000/svg">
  <circle cx="256" cy="256" r="256" fill="white"/>
  <path d="M309.209 399.921C310.014 346.203 309.303 257.002 309.144 238.434C330.718 227.582 345.142 209.937 345.142 189.656C345.142 181.809 342.763 174.794 338.864 168.138H434.81C434.708 168.357 434.595 168.59 434.474 168.838C433.532 170.766 432.149 173.498 430.382 176.924C426.844 183.775 421.785 193.363 415.71 204.768C403.557 227.577 387.347 257.627 371.111 287.516C354.874 317.405 338.614 347.128 326.365 369.281C320.24 380.358 315.12 389.539 311.51 395.898C310.655 397.402 309.886 398.749 309.209 399.921Z" fill="black"/>
  <path d="M164.945 189.665C164.945 209.947 179.375 227.594 200.952 238.445C200.787 257.013 200.075 346.212 200.886 399.927C200.21 398.755 199.441 397.411 198.587 395.907C194.975 389.548 189.855 380.368 183.73 369.291C171.48 347.139 155.219 317.417 138.981 287.528C122.743 257.639 106.531 227.588 94.3795 204.78C88.3034 193.374 83.2451 183.785 79.7076 176.935C77.9378 173.508 76.5538 170.776 75.6145 168.849C75.4933 168.6 75.3805 168.366 75.2754 168.147H171.225C167.33 174.802 164.945 181.819 164.945 189.665Z" fill="black"/>
  <path d="M255.383 254.223C255.458 254.225 255.534 254.226 255.611 254.228C256.034 254.238 256.484 254.249 256.908 254.249C267.444 254.249 277.829 250.989 287.009 248.109C288.028 247.789 289.033 247.474 290.021 247.168C290.032 248.697 290.047 250.869 290.064 253.471C290.099 258.704 290.145 265.673 290.19 272.64L290.313 291.793L290.353 298.103L290.364 299.871L290.368 300.337L290.368 300.456V300.477L287.952 455.063V455.07C287.942 456.125 287.335 457.271 285.677 458.476C284.018 459.681 281.535 460.758 278.385 461.634C272.105 463.383 263.654 464.204 255.178 464L253.309 463.956V464.036C245.408 464.105 237.645 463.288 231.77 461.663C228.601 460.787 226.102 459.71 224.432 458.502C222.763 457.293 222.155 456.14 222.145 455.088V455.074L219.723 300.484L219.723 300.464L219.724 300.345L219.727 299.879L219.738 298.111L219.778 291.801L219.901 272.648C219.946 265.681 219.991 258.712 220.027 253.479C220.044 250.876 220.059 248.704 220.07 247.175C221.07 247.484 222.086 247.803 223.118 248.127C232.292 251.006 242.661 254.26 253.181 254.26C253.547 254.26 253.956 254.25 254.334 254.241C254.567 254.236 254.79 254.23 254.983 254.228L255.383 254.223Z" fill="black"/>
  <path d="M255.137 233.801L253.714 233.803C236.324 233.551 220.691 228.689 209.363 221.044C197.716 213.183 190.783 202.518 190.783 190.972C190.783 179.446 197.693 168.796 209.306 160.939C220.909 153.089 237.045 148.164 254.968 148.133L256.341 148.131C273.752 148.374 289.404 153.239 300.742 160.891C312.389 168.752 319.322 179.418 319.322 190.964C319.322 202.49 312.411 213.14 300.797 220.997C289.193 228.846 273.057 233.771 255.137 233.801Z" fill="black"/>
  <path d="M76.7969 152.794C77.4817 152.21 78.2812 151.571 79.1993 150.881C81.9369 148.822 85.6073 146.399 90.1603 143.751C99.2639 138.456 111.832 132.299 127.4 126.385C158.532 114.556 201.595 103.719 252.833 102.653C253.277 102.644 253.69 102.643 254.122 102.641C254.394 102.64 254.674 102.639 254.972 102.636L255.524 102.631C255.689 102.632 255.848 102.632 256.004 102.632C256.41 102.633 256.8 102.634 257.248 102.643C308.487 103.709 351.552 114.546 382.684 126.374C398.251 132.289 410.82 138.446 419.924 143.741C424.477 146.389 428.146 148.812 430.884 150.871C431.8 151.562 432.599 152.201 433.286 152.785C433.136 152.786 432.986 152.787 432.829 152.788C429.818 152.806 425.506 152.824 420.333 152.843C409.98 152.88 396.166 152.918 382.325 152.952C368.486 152.985 354.624 153.015 344.177 153.035C338.953 153.045 334.583 153.052 331.498 153.057L327.886 153.062L327.231 153.062C311.127 138.516 285.711 129.231 257.238 129.231C256.729 129.231 256.205 129.245 255.712 129.259C255.498 129.264 255.29 129.27 255.091 129.274L254.828 129.28C254.69 129.276 254.548 129.272 254.403 129.268C253.896 129.254 253.356 129.238 252.841 129.238C224.373 129.238 198.959 138.527 182.851 153.072L182.197 153.072L178.585 153.066C175.5 153.061 171.13 153.054 165.907 153.044C155.46 153.024 141.597 152.994 127.758 152.961C113.918 152.927 100.102 152.89 89.7497 152.852C84.5731 152.834 80.2635 152.815 77.2503 152.797C77.0955 152.796 76.9444 152.795 76.7969 152.794Z" fill="black"/>
</svg>
  